<?xml version="1.0" standalone="no"?>
<!DOCTYPE svg PUBLIC "-//W3C//DTD SVG 20010904//EN"
 "http://www.w3.org/TR/2001/REC-SVG-20010904/DTD/svg10.dtd">
<svg version="1.0" xmlns="http://www.w3.org/2000/svg"
 width="12.000000pt" height="21.000000pt" viewBox="0 0 12.000000 21.000000"
 preserveAspectRatio="xMidYMid meet">

<g transform="translate(0.000000,21.000000) scale(0.100000,-0.100000)"
fill="#000000" stroke="none">
<path d="M50 140 c0 -68 -1 -70 -25 -70 -33 0 -32 -10 5 -45 l30 -29 30 29
c37 35 38 45 5 45 -24 0 -25 2 -25 70 0 40 -4 70 -10 70 -6 0 -10 -30 -10 -70z
m22 -102 c-9 -9 -15 -9 -24 0 -9 9 -7 12 12 12 19 0 21 -3 12 -12z"/>
</g>
</svg>
