<?xml version="1.0" standalone="no"?>
<!DOCTYPE svg PUBLIC "-//W3C//DTD SVG 20010904//EN"
 "http://www.w3.org/TR/2001/REC-SVG-20010904/DTD/svg10.dtd">
<svg version="1.0" xmlns="http://www.w3.org/2000/svg"
 width="117.000000pt" height="22.000000pt" viewBox="0 0 117.000000 22.000000"
 preserveAspectRatio="xMidYMid meet">

<g transform="translate(0.000000,22.000000) scale(0.100000,-0.100000)"
fill="#000000" stroke="none">
<path d="M271 199 c-32 -19 -32 -21 -16 -39 16 -17 20 -18 38 -5 12 8 29 15
39 15 24 0 58 -35 58 -60 0 -26 -34 -60 -60 -60 -11 0 -37 16 -59 35 -43 39
-51 42 -51 20 0 -48 60 -105 110 -105 53 0 110 57 110 110 0 54 -57 110 -112
110 -13 0 -38 -9 -57 -21z"/>
<path d="M500 191 c0 -25 15 -42 95 -110 l95 -82 0 111 0 110 -25 0 c-24 0
-25 -3 -25 -55 l0 -56 -70 56 -70 56 0 -30z"/>
<path d="M760 110 l0 -110 75 0 c68 0 75 2 75 20 0 17 -7 20 -50 20 -47 0 -50
2 -50 25 0 23 4 25 45 25 38 0 45 3 45 20 0 17 -7 20 -45 20 -41 0 -45 2 -45
25 0 23 3 25 50 25 43 0 50 3 50 20 0 18 -7 20 -75 20 l-75 0 0 -110z"/>
<path d="M990 165 l41 -55 -41 -55 -41 -55 30 0 c21 0 37 9 55 33 l26 32 26
-33 c18 -23 34 -32 55 -32 l30 0 -41 55 -41 55 41 55 41 55 -30 0 c-21 0 -37
-9 -55 -32 l-26 -33 -26 33 c-18 23 -34 32 -55 32 l-30 0 41 -55z"/>
<path d="M10 185 c0 -23 4 -25 45 -25 l45 0 -50 -80 -50 -80 85 0 c78 0 85 2
85 19 0 16 -8 20 -45 23 l-44 3 27 45 c16 25 38 62 51 83 l23 37 -86 0 c-85 0
-86 0 -86 -25z"/>
<path d="M500 50 c0 -47 2 -50 25 -50 22 0 25 4 25 34 0 25 -6 38 -25 50 l-25
16 0 -50z"/>
</g>
</svg>
